<mxfile host="65bd71144e">
    <diagram id="JTHo6oqhydovvSjrO-MU" name="Page-1">
        <mxGraphModel dx="1130" dy="423" grid="0" gridSize="1" guides="1" tooltips="1" connect="1" arrows="1" fold="1" page="1" pageScale="1" pageWidth="850" pageHeight="1100" background="#ffffff" math="0" shadow="0">
            <root>
                <mxCell id="0"/>
                <mxCell id="1" parent="0"/>
                <mxCell id="2" value="&lt;p&gt;&lt;font face=&quot;Lucida Console&quot;&gt;&lt;i&gt;Baza&lt;/i&gt;&lt;/font&gt;&lt;/p&gt;" style="shape=cylinder3;whiteSpace=wrap;html=1;boundedLbl=1;backgroundOutline=1;size=15;fillColor=#e3c800;fontColor=#000000;strokeColor=#000000;rounded=0;sketch=1;curveFitting=1;jiggle=2;fillStyle=auto;gradientColor=none;gradientDirection=radial;dashed=1;dashPattern=8 8;shadow=0;" parent="1" vertex="1">
                    <mxGeometry x="219" y="420" width="60" height="80" as="geometry"/>
                </mxCell>
            </root>
        </mxGraphModel>
    </diagram>
</mxfile>